<svg xmlns="http://www.w3.org/2000/svg" width="200" height="200" viewBox="0 0 200 200">
  <metadata><?xpacket begin="﻿" id="W5M0MpCehiHzreSzNTczkc9d"?>
<x:xmpmeta xmlns:x="adobe:ns:meta/" x:xmptk="Adobe XMP Core 5.6-c138 79.159824, 2016/09/14-01:09:01        ">
   <rdf:RDF xmlns:rdf="http://www.w3.org/1999/02/22-rdf-syntax-ns#">
      <rdf:Description rdf:about=""/>
   </rdf:RDF>
</x:xmpmeta>
                                                                                                    
                                                                                                    
                                                                                                    
                                                                                                    
                                                                                                    
                                                                                                    
                                                                                                    
                                                                                                    
                                                                                                    
                                                                                                    
                                                                                                    
                                                                                                    
                                                                                                    
                                                                                                    
                                                                                                    
                                                                                                    
                                                                                                    
                                                                                                    
                                                                                                    
                                                                                                    
                           
<?xpacket end="w"?></metadata>
<defs>
    <style>
      .cls-1 {
        fill-rule: evenodd;
      }
    </style>
  </defs>
  <path id="архив" class="cls-1" d="M61.239,26.244a89.029,89.029,0,1,1-13.282,136.5c4.231-4.257,8.5-8.469,12.7-12.749a17.184,17.184,0,0,1,3.206,2.775A70.735,70.735,0,1,0,40.259,99.833c7.392,0.1,14.79-.039,22.184.067a18.233,18.233,0,0,1-3.017,3.358c-9.269,9.313-18.613,18.559-27.841,27.917-1.2-.316-1.93-1.371-2.773-2.187Q16.077,116.217,3.329,103.474A26.983,26.983,0,0,1,0,99.9c7.4-.072,14.812-0.034,22.223-0.017C21.78,70.845,37.136,42.307,61.239,26.244M108.6,45.437q2.472,0.075,4.942,0c0.942,18.7,2.228,37.386,3.227,56.085q12.255,14.368,24.441,28.793c0.976,0.822-.338,1.71-0.849,2.343-0.6.516-1.518,1.781-2.328,0.843-10.909-9.252-21.775-18.56-32.7-27.789,1.027-20.091,2.3-40.177,3.267-60.274h0Z"/>
</svg>
