<svg xmlns="http://www.w3.org/2000/svg" width="50" height="50" viewBox="0 0 25 25">
  <metadata><?xpacket begin="﻿" id="W5M0MpCehiHzreSzNTczkc9d"?>
<x:xmpmeta xmlns:x="adobe:ns:meta/" x:xmptk="Adobe XMP Core 5.6-c138 79.159824, 2016/09/14-01:09:01        ">
   <rdf:RDF xmlns:rdf="http://www.w3.org/1999/02/22-rdf-syntax-ns#">
      <rdf:Description rdf:about=""/>
   </rdf:RDF>
</x:xmpmeta>
                                                                                                    
                                                                                                    
                                                                                                    
                                                                                                    
                                                                                                    
                                                                                                    
                                                                                                    
                                                                                                    
                                                                                                    
                                                                                                    
                                                                                                    
                                                                                                    
                                                                                                    
                                                                                                    
                                                                                                    
                                                                                                    
                                                                                                    
                                                                                                    
                                                                                                    
                                                                                                    
                           
<?xpacket end="w"?></metadata>
<defs>
    <style>
      .cls-1 {
        fill-rule: evenodd;
		fill: #838383;
      }
    </style>
  </defs>
  <path id="TV_icon_big" data-name="TV icon big" class="cls-1" d="M20.828,22.29a52.863,52.863,0,0,1-8.463.71,48.715,48.715,0,0,1-8.192-.71A2.151,2.151,0,0,1,2,20.161V10.513A2.151,2.151,0,0,1,4.172,8.384s1.46-.29,3.66-0.5L6.641,5.637c-0.463-.78-0.679-1.505-0.48-1.619L7.6,3.192c0.2-.114.735,0.426,1.2,1.206l1.694,3.2c0.022,0.038.037,0.072,0.058,0.11,0.514-.019,1.047-0.03,1.592-0.03,0.73,0,1.441.019,2.128,0.048,0.015-.025.024-0.048,0.04-0.073l3.37-5.465c0.465-.754,1-1.277,1.2-1.166l1.441,0.8c0.2,0.11-.017.811-0.482,1.566L17.046,7.91c2.253,0.207,3.782.474,3.782,0.474A2.151,2.151,0,0,1,23,10.513v9.648A2.151,2.151,0,0,1,20.828,22.29ZM5.787,10.835a27.716,27.716,0,0,1,6.305-.71,37.587,37.587,0,0,1,7.12.71,1.194,1.194,0,0,1,1.293,1.059v6.883a1.194,1.194,0,0,1-1.293,1.059,35.8,35.8,0,0,1-6.984.71,29.221,29.221,0,0,1-6.441-.71,1.194,1.194,0,0,1-1.293-1.059V11.894A1.194,1.194,0,0,1,5.787,10.835Zm5.49,0.809,4.81,2.7a1.276,1.276,0,0,1,.015,1.825l-4.825,2.573a1.3,1.3,0,0,1-1.312-1.29V12.935A1.3,1.3,0,0,1,11.277,11.644Z" transform="translate(0 0.484)"/>
</svg>
