<svg xmlns="http://www.w3.org/2000/svg" width="56" height="5" viewBox="0 0 56 5"><path fill="#6c6969" d="M2.5.65a1.85 1.85 0 1 1 0 3.7 1.85 1.85 0 0 1 0-3.7zm12 0a1.84 1.84 0 1 1 0 3.7 1.84 1.84 0 0 1 0-3.7zm13 0a1.84 1.84 0 1 1 0 3.7 1.84 1.84 0 0 1 0-3.7zm13 0a1.84 1.84 0 1 1 0 3.7 1.84 1.84 0 0 1 0-3.7zm13 0a1.84 1.84 0 1 1 0 3.7 1.84 1.84 0 0 1 0-3.7z"/><path fill="#b7b7b7" d="M2.5.65a1.85 1.85 0 1 1 0 3.7 1.85 1.85 0 0 1 0-3.7zm12 0a1.84 1.84 0 1 1 0 3.7 1.84 1.84 0 0 1 0-3.7zm13 0a1.84 1.84 0 1 1 0 3.7 1.84 1.84 0 0 1 0-3.7zm13 0a1.84 1.84 0 1 1 0 3.7 1.84 1.84 0 0 1 0-3.7zm13 0a1.84 1.84 0 1 1 0 3.7 1.84 1.84 0 0 1 0-3.7z"/></svg>