<svg xmlns="http://www.w3.org/2000/svg" width="8" height="14" viewBox="0 0 8 14"><path fill="#d5c5b2" d="M7.81 1.96c.17-.17 0-.61-.39-1-.4-.39-.83-.56-1-.4l-4.99 5C1.22 5.52.88 5.7.58 6l-.01.01c-.33.32-.5.69-.45.9-.05.2.12.57.45.89.3.31.65.48.86.46l4.99 4.99c.17.16.6-.01 1-.4.38-.38.56-.83.4-1L2.85 6.92z"/><path fill="#5f5f5f" d="M7.81 1.96c.17-.17 0-.61-.39-1-.4-.39-.83-.56-1-.4l-4.99 5C1.22 5.52.88 5.7.58 6l-.01.01c-.33.32-.5.69-.45.9-.05.2.12.57.45.89.3.31.65.48.86.46l4.99 4.99c.17.16.6-.01 1-.4.38-.38.56-.83.4-1L2.85 6.92z"/></svg>