<svg xmlns="http://www.w3.org/2000/svg" width="266" height="6" viewBox="0 0 266 6"><defs><clipPath id="a"><path fill="#fff" d="M589 401a3 3 0 1 1 0 6 3 3 0 0 1 0-6z"/></clipPath><clipPath id="b"><path fill="#fff" d="M615 401a3 3 0 1 1 0 6 3 3 0 0 1 0-6z"/></clipPath><clipPath id="c"><path fill="#fff" d="M641 401a3 3 0 1 1 0 6 3 3 0 0 1 0-6z"/></clipPath><clipPath id="d"><path fill="#fff" d="M667 401a3 3 0 1 1 0 6 3 3 0 0 1 0-6z"/></clipPath><clipPath id="e"><path fill="#fff" d="M693 401a3 3 0 1 1 0 6 3 3 0 0 1 0-6z"/></clipPath><clipPath id="f"><path fill="#fff" d="M719 401a3 3 0 1 1 0 6 3 3 0 0 1 0-6z"/></clipPath><clipPath id="g"><path fill="#fff" d="M745 401a3 3 0 1 1 0 6 3 3 0 0 1 0-6z"/></clipPath><clipPath id="h"><path fill="#fff" d="M771 401a3 3 0 1 1 0 6 3 3 0 0 1 0-6z"/></clipPath><clipPath id="i"><path fill="#fff" d="M797 401a3 3 0 1 1 0 6 3 3 0 0 1 0-6z"/></clipPath><clipPath id="j"><path fill="#fff" d="M823 401a3 3 0 1 1 0 6 3 3 0 0 1 0-6z"/></clipPath><clipPath id="k"><path fill="#fff" d="M849 401a3 3 0 1 1 0 6 3 3 0 0 1 0-6z"/></clipPath></defs><path fill="#ddd" d="M3 0a3 3 0 1 1 0 6 3 3 0 0 1 0-6z"/><path fill="none" stroke="#fff" stroke-linecap="round" stroke-linejoin="round" stroke-miterlimit="50" stroke-width="2" d="M589 401a3 3 0 1 1 0 6 3 3 0 0 1 0-6z" clip-path="url(&quot;#a&quot;)" transform="translate(-586 -401)"/><path fill="#ddd" d="M29 0a3 3 0 1 1 0 6 3 3 0 0 1 0-6z"/><path fill="none" stroke="#fff" stroke-linecap="round" stroke-linejoin="round" stroke-miterlimit="50" stroke-width="2" d="M615 401a3 3 0 1 1 0 6 3 3 0 0 1 0-6z" clip-path="url(&quot;#b&quot;)" transform="translate(-586 -401)"/><path fill="#ddd" d="M55 0a3 3 0 1 1 0 6 3 3 0 0 1 0-6z"/><path fill="none" stroke="#fff" stroke-linecap="round" stroke-linejoin="round" stroke-miterlimit="50" stroke-width="2" d="M641 401a3 3 0 1 1 0 6 3 3 0 0 1 0-6z" clip-path="url(&quot;#c&quot;)" transform="translate(-586 -401)"/><path fill="#ddd" d="M81 0a3 3 0 1 1 0 6 3 3 0 0 1 0-6z"/><path fill="none" stroke="#fff" stroke-linecap="round" stroke-linejoin="round" stroke-miterlimit="50" stroke-width="2" d="M667 401a3 3 0 1 1 0 6 3 3 0 0 1 0-6z" clip-path="url(&quot;#d&quot;)" transform="translate(-586 -401)"/><path fill="#ddd" d="M107 0a3 3 0 1 1 0 6 3 3 0 0 1 0-6z"/><path fill="none" stroke="#fff" stroke-linecap="round" stroke-linejoin="round" stroke-miterlimit="50" stroke-width="2" d="M693 401a3 3 0 1 1 0 6 3 3 0 0 1 0-6z" clip-path="url(&quot;#e&quot;)" transform="translate(-586 -401)"/><path fill="#ddd" d="M133 0a3 3 0 1 1 0 6 3 3 0 0 1 0-6z"/><path fill="none" stroke="#fff" stroke-linecap="round" stroke-linejoin="round" stroke-miterlimit="50" stroke-width="2" d="M719 401a3 3 0 1 1 0 6 3 3 0 0 1 0-6z" clip-path="url(&quot;#f&quot;)" transform="translate(-586 -401)"/><path fill="#ddd" d="M159 0a3 3 0 1 1 0 6 3 3 0 0 1 0-6z"/><path fill="none" stroke="#fff" stroke-linecap="round" stroke-linejoin="round" stroke-miterlimit="50" stroke-width="2" d="M745 401a3 3 0 1 1 0 6 3 3 0 0 1 0-6z" clip-path="url(&quot;#g&quot;)" transform="translate(-586 -401)"/><path fill="#ddd" d="M185 0a3 3 0 1 1 0 6 3 3 0 0 1 0-6z"/><path fill="none" stroke="#fff" stroke-linecap="round" stroke-linejoin="round" stroke-miterlimit="50" stroke-width="2" d="M771 401a3 3 0 1 1 0 6 3 3 0 0 1 0-6z" clip-path="url(&quot;#h&quot;)" transform="translate(-586 -401)"/><path fill="#ddd" d="M211 0a3 3 0 1 1 0 6 3 3 0 0 1 0-6z"/><path fill="none" stroke="#fff" stroke-linecap="round" stroke-linejoin="round" stroke-miterlimit="50" stroke-width="2" d="M797 401a3 3 0 1 1 0 6 3 3 0 0 1 0-6z" clip-path="url(&quot;#i&quot;)" transform="translate(-586 -401)"/><path fill="#ddd" d="M237 0a3 3 0 1 1 0 6 3 3 0 0 1 0-6z"/><path fill="none" stroke="#fff" stroke-linecap="round" stroke-linejoin="round" stroke-miterlimit="50" stroke-width="2" d="M823 401a3 3 0 1 1 0 6 3 3 0 0 1 0-6z" clip-path="url(&quot;#j&quot;)" transform="translate(-586 -401)"/><path fill="#ddd" d="M263 0a3 3 0 1 1 0 6 3 3 0 0 1 0-6z"/><path fill="none" stroke="#fff" stroke-linecap="round" stroke-linejoin="round" stroke-miterlimit="50" stroke-width="2" d="M849 401a3 3 0 1 1 0 6 3 3 0 0 1 0-6z" clip-path="url(&quot;#k&quot;)" transform="translate(-586 -401)"/></svg>